<svg xmlns="http://www.w3.org/2000/svg" viewBox="0 0 64 64" fill="none">
  <rect width="64" height="64" rx="16" fill="#0F172A"/>
  <path d="M13 34c0-10.493 8.507-19 19-19s19 8.507 19 19c0 6.627-3.393 12.462-8.53 15.864-1.466.97-3.406.774-4.664-.458l-2.169-2.123a7.004 7.004 0 0 0-9.82 0l-2.169 2.123c-1.258 1.232-3.198 1.428-4.664.458C16.393 46.462 13 40.627 13 34Z" fill="#38BDF8"/>
  <path d="M22 30c1.657 0 3-1.343 3-3s-1.343-3-3-3-3 1.343-3 3 1.343 3 3 3Zm20 0c1.657 0 3-1.343 3-3s-1.343-3-3-3-3 1.343-3 3 1.343 3 3 3Z" fill="#E0F2FE"/>
  <path d="M25 40c2.5-2 5.167-3 7-3s4.5 1 7 3" stroke="#E0F2FE" stroke-width="3" stroke-linecap="round"/>
</svg>
